<?xml version="1.0" standalone="no"?>
<!DOCTYPE svg PUBLIC "-//W3C//DTD SVG 20010904//EN"
 "http://www.w3.org/TR/2001/REC-SVG-20010904/DTD/svg10.dtd">
<svg version="1.0" xmlns="http://www.w3.org/2000/svg"
 width="260.000000pt" height="260.000000pt" viewBox="0 0 260.000000 260.000000"
 preserveAspectRatio="xMidYMid meet">
<metadata>
Created by potrace 1.14, written by Peter Selinger 2001-2017
</metadata>
<g transform="translate(0.000000,260.000000) scale(0.100000,-0.100000)"
fill="#000000" stroke="none">
<path d="M928 2582 c4 -11 1 -13 -8 -7 -8 5 -11 4 -7 -2 9 -14 -26 -44 -52
-46 -27 -2 -27 -3 7 -22 15 -9 18 -13 7 -10 -34 12 -50 11 -47 -4 3 -12 0 -12
-13 -1 -17 14 -17 14 -33 -15 -7 -12 -12 -14 -12 -6 0 11 -3 11 -15 1 -8 -7
-12 -17 -8 -24 3 -6 0 -6 -8 2 -15 14 -33 16 -24 3 3 -5 1 -12 -4 -15 -5 -4
-13 -1 -17 5 -5 8 -3 9 7 4 8 -5 10 -4 6 0 -9 11 -37 16 -34 7 2 -6 -8 -13
-15 -11 -22 6 -37 5 -35 -3 1 -6 -6 -12 -16 -13 -11 -2 -22 -7 -25 -11 -4 -4
0 -5 9 -1 9 3 22 0 29 -6 10 -9 11 -9 5 3 -5 8 -5 12 0 8 4 -4 13 -4 19 2 8 6
12 2 13 -13 0 -12 -1 -16 -4 -9 -4 10 -8 10 -19 1 -8 -6 -11 -15 -8 -20 3 -5
0 -9 -6 -9 -7 0 -10 7 -6 15 8 21 -10 19 -33 -4 -11 -11 -23 -16 -27 -13 -4 4
-4 -1 -1 -10 3 -10 3 -17 -1 -17 -28 5 -42 -3 -42 -23 0 -16 -3 -19 -8 -10 -9
14 -42 6 -42 -10 0 -5 -5 -6 -10 -3 -6 3 -13 -1 -16 -10 -5 -13 -9 -13 -23 -3
-13 10 -14 10 -5 -1 7 -7 9 -22 6 -33 -4 -15 -7 -17 -14 -6 -7 9 -8 7 -5 -9 6
-25 -8 -40 -19 -22 -5 8 -3 9 6 4 9 -5 11 -4 6 4 -4 6 -11 9 -16 6 -12 -7 -1
-35 13 -35 6 0 7 -3 4 -7 -4 -3 -16 2 -27 12 -11 10 -23 15 -27 12 -3 -4 -1
-7 5 -7 7 0 12 -9 12 -21 0 -11 4 -17 10 -14 6 3 7 -1 3 -10 -5 -13 -7 -14
-14 -3 -8 11 -13 5 -11 -13 1 -3 -5 -6 -13 -6 -8 0 -12 5 -8 10 3 5 -4 4 -16
-3 -12 -6 -19 -15 -16 -21 6 -8 -8 -13 -28 -10 -5 1 -6 -3 -3 -8 4 -5 -2 -14
-11 -20 -11 -6 -13 -11 -5 -11 7 0 11 -4 7 -9 -3 -5 -1 -12 5 -16 13 -8 3 -25
-13 -25 -7 0 -6 4 3 10 12 7 10 9 -7 7 -17 -1 -20 -5 -12 -19 5 -10 15 -18 21
-18 6 0 8 -3 5 -7 -4 -3 -19 4 -34 18 -14 13 -23 19 -19 12 3 -6 2 -14 -4 -18
-6 -4 -8 -11 -5 -16 4 -5 1 -9 -4 -9 -6 0 -11 -5 -11 -10 0 -6 8 -5 20 2 12 8
15 15 9 19 -7 4 -8 9 -1 13 14 8 22 -18 11 -35 -5 -8 -9 -10 -9 -5 0 5 -6 3
-14 -3 -16 -13 -19 -64 -3 -54 6 4 7 1 2 -6 -5 -9 -10 -10 -18 -2 -16 16 -27
13 -20 -6 4 -10 2 -14 -4 -10 -11 7 -11 -22 1 -41 4 -6 2 -12 -3 -12 -6 0 -12
5 -12 10 -1 6 -2 14 -3 19 0 5 -4 12 -9 15 -4 3 -5 3 -2 -1 3 -3 0 -12 -5 -19
-6 -6 -9 -18 -8 -25 2 -7 -3 -13 -9 -14 -7 0 -13 -3 -13 -7 0 -5 0 -11 0 -14
0 -4 8 0 17 7 15 12 16 12 11 -2 -4 -9 -2 -21 4 -27 6 -6 6 -12 -3 -17 -7 -5
-10 -4 -6 2 4 6 -6 15 -21 21 -21 9 -23 9 -10 0 15 -11 15 -13 0 -26 -9 -7
-11 -11 -5 -7 7 3 21 1 30 -4 10 -6 13 -11 6 -11 -7 0 -10 -7 -6 -17 5 -15 3
-15 -10 2 -13 16 -17 17 -31 6 -9 -7 -13 -17 -10 -22 3 -5 -1 -9 -8 -9 -10 0
-9 -3 2 -11 12 -9 11 -10 -7 -6 -16 4 -20 1 -16 -11 4 -8 2 -13 -3 -10 -5 4
-9 -26 -9 -70 0 -59 3 -76 13 -74 8 1 11 -2 7 -8 -3 -6 -10 -8 -15 -5 -5 3 -9
-85 -8 -207 0 -136 4 -215 11 -220 6 -3 12 -14 13 -22 1 -9 -2 -14 -7 -10 -5
3 -7 10 -4 15 4 5 2 9 -4 9 -5 0 -9 -17 -8 -39 1 -27 5 -37 14 -34 10 4 11 9
2 19 -7 9 -8 14 -1 14 17 0 20 -24 6 -41 -12 -13 -11 -21 6 -55 10 -21 19 -33
20 -26 0 7 5 10 11 6 7 -4 7 -10 1 -16 -14 -14 -4 -38 15 -38 10 0 14 -7 10
-20 -3 -11 0 -23 5 -27 6 -3 8 -1 5 4 -4 6 2 18 12 27 14 13 18 14 18 2 0 -8
-5 -14 -11 -13 -5 1 -10 -9 -10 -23 -1 -21 3 -25 24 -23 21 2 23 1 8 -8 -10
-5 -18 -14 -18 -19 0 -5 8 -6 18 -3 15 6 15 5 3 -10 -7 -9 -18 -14 -24 -10 -6
3 -7 1 -3 -5 5 -9 13 -9 28 -1 20 11 20 10 4 -12 -23 -33 -20 -46 4 -18 10 13
19 19 20 12 0 -6 -4 -14 -9 -17 -5 -4 -8 -14 -6 -24 2 -9 4 -21 4 -27 1 -5 5
-3 11 5 5 9 5 19 -2 27 -8 10 -7 12 6 7 11 -4 15 -13 11 -25 -4 -11 -3 -19 2
-18 26 4 34 -2 28 -23 -6 -16 -4 -20 8 -15 11 4 14 2 11 -8 -3 -8 -11 -13 -17
-11 -7 1 -9 1 -4 -1 4 -3 5 -9 1 -14 -3 -5 -2 -9 3 -8 19 3 33 -2 33 -12 0 -5
-5 -7 -12 -3 -7 4 -8 3 -4 -5 5 -8 12 -9 20 -2 14 12 30 3 39 -22 4 -11 1 -20
-9 -24 -13 -5 -13 -7 -2 -14 7 -5 13 -14 13 -21 0 -12 15 -16 72 -20 17 -2 20
-5 11 -15 -8 -10 -14 -11 -25 -2 -11 10 -12 9 -7 -5 7 -19 40 -22 48 -3 3 6 4
3 3 -8 -1 -15 3 -19 18 -17 16 2 17 1 5 -7 -8 -5 -18 -7 -22 -5 -4 3 -8 0 -8
-7 0 -6 8 -9 20 -6 11 3 23 1 26 -4 3 -5 10 -7 15 -3 5 3 8 0 7 -8 -2 -8 5
-13 18 -12 24 1 26 -31 3 -48 -11 -8 -10 -9 4 -4 9 3 24 9 32 12 18 7 20 -11
3 -22 -7 -5 -8 -3 -3 6 5 8 4 11 -3 7 -11 -7 -5 -44 8 -52 5 -3 6 4 3 15 -4
16 -2 19 12 13 11 -4 16 -2 12 4 -3 5 0 10 6 10 7 0 14 -10 15 -21 1 -15 -1
-17 -7 -7 -5 8 -11 9 -15 3 -11 -18 23 -22 34 -4 11 16 11 16 6 0 -3 -10 -9
-25 -12 -34 -4 -10 -2 -15 7 -14 28 4 40 0 33 -12 -4 -6 -3 -8 4 -4 6 3 15 -1
20 -10 8 -15 10 -15 15 0 4 11 3 15 -4 10 -8 -5 -8 -1 0 13 6 11 7 24 3 28 -4
5 -2 5 5 1 7 -4 10 -13 6 -21 -4 -11 0 -14 13 -9 16 5 16 4 4 -5 -10 -7 -11
-11 -2 -11 6 0 14 1 15 3 2 1 10 -3 18 -10 10 -8 20 -9 29 -3 8 6 20 10 25 10
15 -1 -22 -21 -45 -25 -14 -3 -18 0 -14 8 4 7 4 9 -1 5 -4 -4 -16 -3 -26 3
-11 5 -19 6 -19 1 0 -6 9 -12 21 -15 13 -4 18 -10 13 -18 -5 -9 -3 -9 7 -3 8
5 21 9 29 9 8 0 20 3 25 7 6 4 11 -2 12 -13 1 -10 -3 -19 -8 -19 -6 0 -8 4 -5
8 3 5 -1 9 -9 9 -8 0 -15 -4 -15 -9 0 -8 5 -9 40 -12 8 -1 14 -7 13 -13 -1 -6
6 -9 17 -6 13 3 20 0 20 -8 1 -8 8 -3 16 11 8 14 13 17 10 7 -7 -22 10 -22 24
0 11 17 11 17 6 1 -3 -10 -1 -20 5 -23 5 -4 6 -12 2 -18 -4 -7 -8 -18 -9 -24
-3 -18 32 2 45 25 9 16 11 16 28 -2 10 -12 11 -15 3 -8 -13 9 -18 7 -29 -9
-19 -31 -8 -32 43 -5 55 29 60 26 11 -7 l-35 -24 39 1 c22 0 37 4 34 9 -2 4
-9 4 -15 1 -7 -4 -8 -2 -4 4 7 11 36 6 36 -7 0 -3 47 -7 105 -9 81 -1 104 1
99 11 -6 9 -4 9 8 -1 19 -16 280 -15 290 1 8 13 48 17 48 4 0 -5 -9 -7 -20 -4
-11 3 -20 1 -20 -4 0 -4 20 -7 45 -6 25 1 45 6 45 11 0 5 8 2 17 -5 12 -10 14
-10 9 -1 -4 7 -1 15 8 18 9 3 16 11 16 16 0 6 -6 5 -15 -2 -9 -7 -15 -8 -15
-2 0 21 29 20 44 -1 14 -19 15 -19 8 -2 -11 23 -9 61 3 72 4 5 5 3 2 -4 -10
-16 20 -43 40 -36 11 4 14 3 9 -5 -5 -8 -1 -10 10 -5 12 4 14 8 6 11 -10 3
-10 7 -1 18 16 20 29 17 23 -4 -5 -14 -4 -15 5 -2 6 8 8 24 6 35 -3 11 -2 14
1 7 3 -6 11 -9 16 -6 7 5 8 2 2 -7 -6 -10 -1 -9 17 3 17 11 31 13 40 7 8 -5
19 -9 24 -8 6 0 -1 6 -15 14 -18 9 -29 10 -37 3 -22 -18 -14 -2 14 28 15 16
24 21 20 12 -6 -17 6 -31 30 -34 6 -1 10 6 8 17 -5 23 11 25 23 3 8 -15 10
-15 15 0 4 10 3 15 -1 13 -4 -3 -12 1 -19 8 -18 20 7 27 29 8 12 -11 18 -11
24 -2 4 8 3 10 -4 5 -13 -8 -15 4 -6 28 3 9 11 13 17 9 7 -4 8 0 3 12 -5 13
-3 15 6 8 17 -13 58 -14 58 -2 0 6 -4 8 -9 4 -5 -3 -13 -1 -16 5 -4 6 -1 9 6
8 6 -2 14 3 17 11 3 9 0 11 -8 6 -8 -5 -11 -4 -6 3 3 6 15 9 26 7 11 -2 20 1
20 6 0 6 8 5 21 -2 14 -7 19 -7 15 0 -4 5 3 15 14 21 11 6 20 16 20 23 0 8 -3
8 -9 -1 -6 -11 -10 -10 -15 4 -4 10 -4 15 0 12 12 -13 44 12 38 30 -5 14 -4
15 5 2 10 -14 16 -7 12 13 -1 5 4 5 10 1 8 -5 10 -2 6 8 -4 12 -1 14 14 11 10
-3 19 -10 19 -15 0 -5 -4 -7 -9 -4 -5 3 -14 -1 -20 -8 -16 -19 10 -16 34 4 15
12 15 14 0 22 -8 5 -12 14 -9 20 5 8 1 9 -10 5 -9 -4 -15 -3 -11 2 3 6 14 9
25 8 13 -1 16 -5 10 -12 -7 -8 -5 -12 5 -12 7 0 13 5 12 11 -1 6 4 10 11 8 6
-1 11 1 10 5 -4 12 39 52 48 45 4 -4 4 -2 0 5 -3 6 2 17 11 23 15 10 15 11 1
6 -9 -3 -19 2 -22 11 -5 11 -2 14 10 9 12 -5 15 -2 10 9 -4 11 -2 14 6 9 8 -5
9 -1 4 11 -7 18 -6 18 13 1 11 -10 18 -23 14 -29 -3 -6 -1 -7 6 -3 9 6 9 11 0
22 -11 13 -5 19 16 14 6 -1 5 4 -2 11 -9 9 -9 15 0 25 32 36 37 44 27 44 -5 0
-10 7 -10 15 0 8 5 15 11 15 5 0 7 -5 3 -12 -4 -7 -3 -8 5 -4 6 4 9 12 6 17
-4 5 4 13 17 18 13 6 17 10 10 10 -10 1 -10 5 0 20 7 11 16 19 21 18 5 -1 12
5 14 13 4 12 3 12 -5 1 -5 -7 -12 -9 -15 -4 -4 6 3 20 14 31 11 12 15 22 10
22 -6 0 -8 8 -5 18 5 14 4 14 -5 2 -5 -8 -13 -11 -18 -7 -4 5 -1 12 7 17 11 7
19 4 29 -8 13 -16 13 -15 6 3 -4 11 -8 25 -9 32 -1 7 -5 16 -9 19 -4 4 -7 12
-7 18 0 6 4 5 9 -3 7 -11 11 -9 21 9 11 20 10 21 -12 16 -12 -3 -17 -3 -10 0
6 3 10 10 7 14 -3 5 0 12 6 16 8 5 9 3 4 -6 -6 -10 -4 -12 8 -7 18 7 33 -8 17
-18 -6 -4 -8 -11 -5 -16 4 -5 0 -12 -8 -15 -10 -3 -13 -13 -9 -27 6 -21 6 -21
12 3 4 14 12 24 18 23 6 -2 9 6 7 17 -2 11 2 23 8 27 14 9 19 55 6 47 -5 -3
-9 0 -9 5 0 6 5 11 10 11 6 0 10 5 10 11 0 5 -5 7 -11 4 -6 -4 -5 3 3 15 10
18 10 24 1 27 -7 3 -13 9 -13 14 0 6 5 7 10 4 6 -3 10 3 10 15 0 14 -4 19 -12
14 -10 -6 -10 -5 -2 7 8 9 12 74 12 191 0 155 -2 179 -16 189 -16 10 -15 10 1
5 20 -6 23 14 5 33 -10 11 -10 13 0 7 18 -11 15 5 -5 20 -17 13 -17 14 0 8 9
-3 17 -1 17 5 0 6 -4 11 -10 11 -5 0 -10 5 -10 11 0 5 3 8 8 5 11 -6 9 71 -2
81 -5 4 -6 3 -3 -3 4 -7 0 -17 -8 -24 -12 -10 -18 -10 -30 0 -8 6 -20 9 -27 5
-7 -4 -5 0 5 8 17 14 17 16 2 25 -20 11 -17 43 5 50 13 4 13 3 2 -11 -17 -20
-8 -36 18 -34 18 1 18 2 3 19 -9 10 -12 18 -7 18 5 0 0 7 -10 15 -11 8 -17 15
-13 15 4 0 -1 12 -10 27 -17 26 -17 27 0 20 9 -3 17 -2 17 4 0 6 -8 9 -17 7
-11 -2 -17 -11 -15 -21 3 -15 -1 -15 -22 4 -15 13 -26 25 -26 27 0 3 3 2 7 -1
3 -4 13 -1 22 6 14 11 14 10 2 -5 -7 -10 -9 -18 -3 -18 13 0 23 28 12 35 -4 3
-16 2 -27 -2 -15 -6 -16 -4 -6 8 19 23 5 69 -20 69 -7 0 -6 -4 3 -10 8 -5 11
-10 6 -10 -5 0 -3 -6 3 -14 8 -10 9 -16 1 -21 -6 -4 -9 -3 -8 2 1 4 -4 19 -12
33 -7 14 -14 27 -14 30 -1 3 -4 4 -8 3 -4 -2 -5 3 -2 11 3 8 1 17 -5 21 -6 3
-11 13 -11 21 0 8 5 12 10 9 6 -3 10 -1 10 4 0 17 -18 13 -30 -6 -11 -17 -11
-17 -6 0 3 9 9 25 13 35 4 12 1 10 -13 -5 -14 -17 -23 -20 -34 -13 -8 5 -10
10 -4 10 6 0 11 8 12 18 2 31 -8 62 -19 62 -8 0 -7 -5 1 -15 9 -11 10 -19 3
-26 -8 -8 -13 -7 -18 2 -6 8 -4 10 5 4 8 -5 11 -3 8 6 -3 8 -16 13 -34 12 -21
-2 -25 0 -14 7 8 5 18 6 22 4 4 -3 8 2 8 11 0 11 -5 15 -14 12 -8 -3 -21 0
-29 6 -14 11 -14 14 1 27 14 13 15 12 9 -3 -3 -9 -2 -19 3 -22 6 -4 10 2 10
13 0 24 -45 68 -55 53 -3 -6 -11 -11 -18 -11 -8 0 -8 3 0 11 8 8 4 18 -13 36
-13 14 -22 28 -21 32 2 6 -7 11 -19 11 -3 0 7 -16 22 -35 14 -19 22 -35 18
-35 -5 0 -17 14 -27 32 -15 26 -20 29 -28 17 -8 -10 -9 -8 -4 9 5 18 2 22 -18
22 -14 0 -28 7 -31 16 -9 24 -7 31 4 14 8 -13 10 -13 10 1 0 9 -7 20 -16 23
-8 3 -12 2 -9 -4 3 -6 2 -10 -3 -10 -9 0 -24 24 -26 42 -1 3 -4 9 -8 13 -9 9
-5 -16 5 -32 6 -9 3 -11 -7 -7 -14 5 -21 30 -17 56 0 4 -8 5 -19 3 -11 -2 -20
0 -20 5 0 5 -13 5 -30 0 -17 -5 -28 -5 -25 0 3 5 0 12 -6 16 -6 3 -15 0 -20
-7 -6 -10 -8 -8 -6 8 1 20 3 21 30 6 16 -8 31 -12 35 -9 3 3 -1 6 -9 6 -12 0
-11 2 1 11 13 10 13 10 0 6 -21 -6 -63 11 -55 23 10 16 -1 11 -16 -7 -12 -14
-12 -16 0 -8 10 5 12 4 7 -3 -5 -9 -13 -9 -27 -2 -10 6 -19 13 -19 16 0 3 4 3
9 0 5 -3 14 1 21 9 9 10 9 15 1 15 -6 0 -11 -5 -11 -11 0 -5 -5 -7 -10 -4 -8
5 -8 11 -1 19 7 9 4 12 -14 12 -13 0 -23 -2 -23 -5 2 -11 -14 -41 -21 -41 -4
0 -8 7 -8 15 0 8 4 12 9 9 4 -3 8 2 8 10 0 19 -11 21 -28 4 -7 -7 -12 -8 -12
-2 0 6 4 14 10 20 6 6 5 15 -1 24 -9 13 -10 13 -6 -2 3 -9 -1 -19 -9 -22 -8
-3 -12 -2 -9 3 3 5 0 13 -6 17 -8 4 -9 3 -5 -4 4 -7 2 -12 -4 -12 -6 0 -8 -4
-5 -10 3 -6 -1 -7 -10 -3 -13 5 -14 7 -3 14 9 6 2 9 -19 9 -17 0 -34 -6 -37
-12 -3 -7 -4 -5 -3 4 1 10 -9 28 -23 40 -14 13 -20 19 -13 15 6 -5 18 -5 24
-1 8 5 9 3 4 -6 -5 -9 -4 -11 3 -6 7 4 17 4 23 0 8 -4 7 -9 -2 -15 -10 -6 -8
-8 6 -7 12 1 21 9 21 19 0 10 -6 15 -15 11 -9 -3 -12 -1 -7 6 4 7 -4 9 -24 7
-17 -2 -29 -1 -26 3 9 15 -85 7 -95 -8 -9 -13 -10 -12 -5 2 5 16 -13 17 -225
16 -163 0 -229 -4 -229 -12 0 -8 -3 -8 -8 0 -7 11 -113 14 -106 3 2 -4 -3 -10
-12 -13 -11 -4 -15 -2 -11 7 3 8 -1 14 -8 14 -8 0 -11 -7 -7 -15z m44 -12
c-13 -10 -22 -22 -22 -27 1 -4 -4 -9 -12 -11 -9 -2 -8 0 2 8 13 9 12 10 -5 7
-11 -2 -19 -9 -17 -16 1 -7 -2 -10 -9 -5 -9 5 -10 2 -6 -9 4 -11 2 -14 -9 -10
-12 4 -10 11 12 34 15 16 30 26 34 24 4 -2 16 2 26 10 28 21 33 17 6 -5z m602
12 c3 -5 -1 -9 -9 -9 -8 0 -12 4 -9 9 3 4 7 8 9 8 2 0 6 -4 9 -8z m42 -39 c-3
-4 -6 -1 -6 6 0 7 -4 10 -8 7 -4 -2 -9 5 -9 16 -2 21 -2 21 14 -1 8 -12 12
-25 9 -28z m-599 30 c-4 -3 -1 -13 6 -21 11 -13 9 -14 -10 -1 -16 9 -19 16
-10 21 15 9 23 10 14 1z m628 -44 c-4 -5 -12 -9 -18 -8 -9 0 -8 2 1 6 6 2 9
10 6 15 -4 7 -2 8 5 4 6 -4 9 -12 6 -17z m201 -44 c-1 -8 -8 -21 -16 -28 -7
-6 -11 -7 -8 -2 3 6 8 18 11 28 8 21 16 23 13 2z m-1164 -67 c-7 -7 -12 -8
-12 -2 0 14 12 26 19 19 2 -3 -1 -11 -7 -17z m1335 -49 c2 -22 1 -22 -5 -3 -4
13 -14 20 -25 18 -9 -1 -15 1 -12 6 11 17 40 3 42 -21z m-1429 -19 c-7 -11
-14 -17 -17 -15 -2 3 1 11 7 18 7 8 8 18 4 22 -4 5 -1 5 5 1 10 -5 10 -11 1
-26z m1460 -35 c-3 -3 -9 2 -12 12 -6 14 -5 15 5 6 7 -7 10 -15 7 -18z m-1498
11 c0 -2 -7 -7 -16 -10 -8 -3 -12 -2 -9 4 6 10 25 14 25 6z m-50 -51 c0 -5 -5
-3 -10 5 -9 13 -11 13 -20 0 -5 -8 -15 -15 -22 -15 -7 0 -13 -5 -13 -12 0 -6
-3 -14 -7 -18 -10 -11 -4 18 10 40 8 14 11 15 12 5 0 -9 6 -6 16 9 13 18 18
20 25 10 5 -8 9 -18 9 -24z m-83 -77 c-3 -8 -6 -5 -6 6 -1 11 2 17 5 13 3 -3
4 -12 1 -19z m1848 -29 c-3 -4 -13 -5 -22 -2 -11 4 -13 8 -5 11 7 2 9 9 5 15
-4 7 1 6 10 -2 9 -7 14 -17 12 -22z m-1945 -49 c13 -8 12 -10 -3 -10 -12 0
-16 -4 -11 -12 4 -7 3 -9 -1 -5 -11 9 -16 37 -7 37 4 0 14 -5 22 -10z m-34
-32 c4 -7 3 -8 -4 -4 -7 4 -12 3 -12 -3 0 -5 5 -11 12 -13 7 -3 5 -7 -6 -11
-10 -4 -15 -3 -11 3 3 6 1 10 -6 10 -8 0 -8 4 1 15 15 18 17 18 26 3z m2102
-133 c-3 -3 -9 2 -12 12 -6 14 -5 15 5 6 7 -7 10 -15 7 -18z m-2178 -9 c0 -3
-4 -8 -10 -11 -5 -3 -10 -1 -10 4 0 6 5 11 10 11 6 0 10 -2 10 -4z m-46 -92
c3 -8 2 -12 -4 -9 -6 3 -10 10 -10 16 0 14 7 11 14 -7z m2352 -88 c2 -13 -1
-15 -11 -6 -8 7 -18 9 -23 6 -5 -3 -9 1 -9 8 0 19 40 12 43 -8z m29 -46 c3 -5
1 -10 -4 -10 -6 0 -11 5 -11 10 0 6 2 10 4 10 3 0 8 -4 11 -10z m-2475 -39
c-4 -16 -5 -33 -2 -37 4 -4 1 -4 -5 0 -8 4 -13 2 -13 -6 0 -9 -3 -9 -10 2 -8
13 -10 12 -10 -2 0 -10 -5 -18 -10 -18 -7 0 -7 7 0 20 6 11 15 18 21 15 5 -4
10 -1 10 4 8 64 7 63 18 56 6 -3 6 -17 1 -34z m2516 -36 c-1 -8 -8 -21 -16
-28 -7 -6 -11 -7 -8 -2 3 6 8 18 11 28 8 21 16 23 13 2z m-2526 -35 c-12 -23
-16 -24 -26 -8 -4 6 -3 8 3 5 6 -4 13 0 17 8 3 8 8 15 11 15 3 0 1 -9 -5 -20z
m2493 0 c9 -11 13 -20 7 -20 -5 0 -14 9 -20 20 -6 11 -9 20 -8 20 2 0 11 -9
21 -20z m12 -49 c3 -5 2 -12 -3 -15 -5 -3 -9 1 -9 9 0 17 3 19 12 6z m-2535
-21 c0 -5 -5 -10 -11 -10 -5 0 -7 5 -4 10 3 6 8 10 11 10 2 0 4 -4 4 -10z
m2540 -521 c0 -5 -4 -9 -8 -9 -5 0 -9 7 -9 15 0 8 4 12 9 9 4 -3 8 -9 8 -15z
m-2513 -40 c-14 -8 -16 -14 -6 -25 9 -11 15 -12 28 -2 13 10 14 10 4 -2 -17
-18 -17 -33 0 -24 7 4 7 2 -2 -7 -11 -12 -14 -12 -18 0 -5 11 -7 11 -15 0 -6
-10 -7 -7 -3 9 4 12 3 22 -2 21 -22 -4 -24 3 -8 21 10 11 23 20 29 20 6 0 3
-5 -7 -11z m2520 3 c8 -5 9 -13 3 -22 -8 -13 -10 -12 -10 3 0 10 -4 15 -10 12
-5 -3 -10 -1 -10 4 0 13 10 14 27 3z m-2484 -83 c-6 -6 -9 -18 -6 -25 5 -14
-8 -19 -20 -7 -7 6 20 43 32 43 3 0 0 -5 -6 -11z m2404 -103 c-6 -12 -10 -24
-9 -28 1 -4 -5 -5 -13 -1 -14 5 -13 7 1 18 9 6 14 16 11 22 -3 5 0 10 8 10 11
0 12 -4 2 -21z m-2376 -9 c-10 -9 -11 -8 -5 6 3 10 9 15 12 12 3 -3 0 -11 -7
-18z m2343 -63 c-18 -27 -26 -31 -18 -9 4 9 1 15 -7 15 -7 0 -5 6 6 14 28 20
38 9 19 -20z m-43 -27 c-10 -9 -11 -8 -5 6 3 10 9 15 12 12 3 -3 0 -11 -7 -18z
m-1 -58 c-6 -10 -18 -18 -28 -18 -16 1 -15 2 1 6 9 2 15 9 12 14 -4 5 -1 9 5
9 6 0 8 5 4 12 -4 7 -3 8 4 4 9 -5 9 -13 2 -27z m-25 -38 c3 -5 1 -12 -5 -16
-5 -3 -10 1 -10 9 0 18 6 21 15 7z m-2145 -31 c0 -5 -5 -10 -11 -10 -5 0 -7 5
-4 10 3 6 8 10 11 10 2 0 4 -4 4 -10z m2078 -43 c7 -8 6 -18 -4 -32 -15 -19
-15 -19 -10 7 2 15 -1 29 -7 32 -8 3 -9 5 -1 5 6 1 16 -5 22 -12z m-1988 -54
c0 -3 -7 -3 -15 1 -8 3 -15 1 -15 -4 0 -6 5 -10 11 -10 5 0 7 -4 4 -10 -3 -5
-11 -10 -16 -10 -6 0 -8 4 -4 9 3 5 0 13 -6 17 -8 5 -8 9 2 14 12 8 39 3 39
-7z m1950 -8 c-7 -9 -15 -13 -19 -10 -3 3 1 10 9 15 21 14 24 12 10 -5z m-156
-157 c-9 -14 -23 2 -17 18 4 12 8 13 14 3 4 -7 5 -17 3 -21z m-159 -88 c-3 -5
-12 -10 -18 -10 -7 0 -6 4 3 10 19 12 23 12 15 0z m-1341 -23 c4 -19 3 -20 -7
-6 -7 9 -20 15 -30 13 -9 -1 -15 1 -13 5 11 17 44 9 50 -12z m1286 -41 c0 -3
-4 -8 -10 -11 -5 -3 -10 -1 -10 4 0 6 5 11 10 11 6 0 10 -2 10 -4z m-1110 -48
c0 -4 -4 -8 -9 -8 -6 0 -12 4 -15 8 -3 5 1 9 9 9 8 0 15 -4 15 -9z m960 -13
c0 -12 -19 -12 -23 0 -4 9 -1 12 9 8 7 -3 14 -7 14 -8z m-866 -46 c-3 -5 -10
-9 -15 -9 -6 0 -7 6 -2 13 4 6 7 21 5 32 -1 17 0 16 8 -3 6 -13 8 -28 4 -33z
m834 26 c-3 -3 -9 2 -12 12 -6 14 -5 15 5 6 7 -7 10 -15 7 -18z m-53 5 c3 -5
1 -10 -4 -10 -6 0 -11 5 -11 10 0 6 2 10 4 10 3 0 8 -4 11 -10z m-695 -14 c0
-3 -4 -8 -10 -11 -5 -3 -10 -1 -10 4 0 6 5 11 10 11 6 0 10 -2 10 -4z m595 -5
c3 -5 2 -12 -3 -15 -5 -3 -9 1 -9 9 0 17 3 19 12 6z m72 3 c-3 -3 -12 -4 -19
-1 -8 3 -5 6 6 6 11 1 17 -2 13 -5z m-14 -27 c3 -8 -3 -13 -17 -14 -11 0 -15
1 -8 4 6 3 10 9 6 14 -3 5 -1 9 4 9 6 0 12 -6 15 -13z"/>
<path d="M864 2558 c-4 -5 -3 -12 0 -15 3 -4 6 -1 6 6 0 7 4 10 9 6 5 -3 12
-2 15 3 3 5 -2 9 -10 9 -8 0 -17 -4 -20 -9z"/>
<path d="M1725 2559 c-4 -6 -5 -12 -2 -15 2 -3 7 2 10 11 7 17 1 20 -8 4z"/>
<path d="M816 2527 c5 -14 2 -16 -12 -11 -16 5 -16 4 -4 -5 20 -14 39 4 21 22
-10 10 -11 9 -5 -6z"/>
<path d="M733 2496 c-4 -5 -1 -6 7 -1 8 5 11 3 8 -6 -3 -8 -11 -13 -17 -11 -7
1 -9 -2 -6 -8 5 -8 13 -6 24 4 10 9 20 14 23 11 2 -3 5 1 5 8 0 15 -36 17 -44
3z"/>
<path d="M686 2482 c-3 -5 1 -9 9 -9 8 0 12 4 9 9 -3 4 -7 8 -9 8 -2 0 -6 -4
-9 -8z"/>
<path d="M519 2369 l-24 -20 28 17 c15 9 27 18 27 20 0 8 -8 4 -31 -17z"/>
<path d="M470 2356 c0 -2 8 -10 18 -17 15 -13 16 -12 3 4 -13 16 -21 21 -21
13z"/>
<path d="M2116 2315 c-3 -8 -1 -15 4 -15 6 0 10 7 10 15 0 8 -2 15 -4 15 -2 0
-6 -7 -10 -15z"/>
<path d="M2216 2247 c3 -10 9 -15 12 -12 3 3 0 11 -7 18 -10 9 -11 8 -5 -6z"/>
<path d="M285 2159 c-6 -8 42 -5 51 4 4 4 -5 6 -20 5 -15 -1 -29 -5 -31 -9z"/>
<path d="M2353 2035 c0 -8 4 -12 9 -9 4 3 8 9 8 15 0 5 -4 9 -8 9 -5 0 -9 -7
-9 -15z"/>
<path d="M2416 1965 c9 -14 21 -25 28 -24 7 0 6 2 -1 6 -7 2 -13 11 -13 18 0
7 -7 15 -15 19 -13 5 -13 2 1 -19z"/>
<path d="M153 1955 c0 -8 4 -12 9 -9 5 3 6 10 3 15 -9 13 -12 11 -12 -6z"/>
<path d="M41 1756 c-9 -11 -9 -16 1 -22 7 -4 10 -4 6 1 -4 4 -3 14 3 22 6 7 9
13 6 13 -2 0 -10 -6 -16 -14z"/>
<path d="M10 1700 c-9 -6 -10 -10 -3 -10 6 0 15 5 18 10 8 12 4 12 -15 0z"/>
<path d="M2545 1681 c-6 -11 9 -23 19 -14 9 9 7 23 -3 23 -6 0 -12 -4 -16 -9z"/>
<path d="M14 886 c2 -15 6 -29 9 -32 3 -4 5 6 3 20 -1 14 -5 29 -9 32 -3 3 -4
-6 -3 -20z"/>
<path d="M70 779 c0 -5 5 -7 10 -4 6 3 10 8 10 11 0 2 -4 4 -10 4 -5 0 -10 -5
-10 -11z"/>
<path d="M180 619 c-11 -6 -12 -9 -2 -9 7 0 10 -4 7 -10 -3 -5 -2 -10 3 -10
13 0 23 28 14 34 -5 3 -14 1 -22 -5z"/>
<path d="M260 525 c0 -15 18 -40 24 -34 3 3 -1 14 -9 25 -8 10 -14 15 -15 9z"/>
<path d="M235 500 c-3 -5 -1 -10 4 -10 6 0 11 5 11 10 0 6 -2 10 -4 10 -3 0
-8 -4 -11 -10z"/>
<path d="M2192 358 c-7 -7 -12 -16 -12 -21 0 -5 7 -1 16 8 9 9 14 18 12 20 -2
3 -10 -1 -16 -7z"/>
<path d="M415 340 c-8 -13 3 -30 21 -30 18 0 18 14 0 29 -10 8 -16 9 -21 1z
m20 -10 c3 -5 1 -10 -4 -10 -6 0 -11 5 -11 10 0 6 2 10 4 10 3 0 8 -4 11 -10z"/>
<path d="M460 306 c-9 -12 -8 -15 8 -13 12 0 18 6 15 14 -6 16 -8 16 -23 -1z"/>
<path d="M2077 267 c-3 -8 -2 -20 3 -26 5 -9 8 -4 8 13 0 29 -3 32 -11 13z"/>
<path d="M1999 209 c-6 -4 -4 -9 7 -13 10 -4 23 -1 31 6 11 11 10 14 -7 14
-12 0 -25 -3 -31 -7z"/>
<path d="M1855 101 c-3 -5 -2 -12 3 -15 5 -3 9 1 9 9 0 17 -3 19 -12 6z"/>
<path d="M846 64 c-11 -8 -16 -14 -10 -14 13 0 39 18 34 24 -3 2 -14 -2 -24
-10z"/>
<path d="M1711 53 c7 -12 15 -20 18 -17 3 2 -3 12 -13 22 -17 16 -18 16 -5 -5z"/>
</g>
</svg>
